<mxfile host="7cb47a3c-b7ae-4c53-8c50-d5a26f6d791a" modified="2020-11-25T12:19:26.378Z" agent="5.0 (Windows NT 6.1; Win64; x64) AppleWebKit/537.36 (KHTML, like Gecko) Code/1.47.3 Chrome/78.0.3904.130 Electron/7.3.2 Safari/537.36" etag="w0SyhziJXyXz_3mDJYdv" version="13.1.3" pages="4">
    <diagram id="n1lHVNkYfh9JiUFZFuvl" name="Sklearn">
        <mxGraphModel dx="1649" dy="480" grid="1" gridSize="10" guides="1" tooltips="1" connect="1" arrows="1" fold="1" page="1" pageScale="1" pageWidth="827" pageHeight="1169" math="0" shadow="0">
            <root>
                <mxCell id="eif3WQCAAp5WqQWgN8v_-0"/>
                <mxCell id="eif3WQCAAp5WqQWgN8v_-1" parent="eif3WQCAAp5WqQWgN8v_-0"/>
                <mxCell id="aRTQ9jC5zIk2RVt1QCQq-0" value="&lt;table cellpadding=&quot;4&quot; cellspacing=&quot;0&quot; border=&quot;1&quot; style=&quot;font-size: 1em ; width: 100% ; height: 100%&quot;&gt;&lt;tbody&gt;&lt;tr&gt;&lt;th&gt;Type&lt;/th&gt;&lt;th&gt;Contents&lt;/th&gt;&lt;/tr&gt;&lt;tr&gt;&lt;td&gt;dataset&lt;/td&gt;&lt;td&gt;&lt;h3&gt;&lt;font face=&quot;Courier New&quot;&gt;from sklearn import dataset&lt;/font&gt;&lt;/h3&gt;&lt;div&gt;&lt;ol&gt;&lt;li&gt;&lt;font face=&quot;Courier New&quot;&gt;load_iris&lt;/font&gt;&lt;/li&gt;&lt;li&gt;&lt;font face=&quot;Courier New&quot;&gt;load_diabetes&lt;/font&gt;&lt;/li&gt;&lt;/ol&gt;&lt;/div&gt;&lt;/td&gt;&lt;/tr&gt;&lt;tr&gt;&lt;td&gt;preprocessing&lt;/td&gt;&lt;td&gt;&lt;h3&gt;&lt;font face=&quot;Courier New&quot;&gt;from sklearn import preprocessing&lt;/font&gt;&lt;/h3&gt;&lt;div&gt;&lt;ol&gt;&lt;li&gt;&lt;font face=&quot;Courier New&quot;&gt;StandardScaler&lt;/font&gt;&lt;/li&gt;&lt;/ol&gt;&lt;/div&gt;&lt;/td&gt;&lt;/tr&gt;&lt;tr&gt;&lt;td&gt;metric&lt;/td&gt;&lt;td&gt;&lt;h3&gt;&lt;font face=&quot;Courier New&quot;&gt;from sklearn import metric&lt;/font&gt;&lt;/h3&gt;&lt;div&gt;&lt;ol&gt;&lt;li&gt;&lt;font face=&quot;Courier New&quot;&gt;mean_square_error&lt;/font&gt;&lt;/li&gt;&lt;li&gt;&lt;font face=&quot;Courier New&quot;&gt;r2_score&lt;/font&gt;&lt;/li&gt;&lt;li&gt;&lt;font face=&quot;Courier New&quot;&gt;accuracy_score&lt;/font&gt;&lt;/li&gt;&lt;/ol&gt;&lt;/div&gt;&lt;/td&gt;&lt;/tr&gt;&lt;tr&gt;&lt;td&gt;model selection&lt;/td&gt;&lt;td&gt;&lt;h3&gt;&lt;font face=&quot;Courier New&quot;&gt;from sklearn import model_selection&lt;/font&gt;&lt;/h3&gt;&lt;div&gt;&lt;ol&gt;&lt;li&gt;&lt;font face=&quot;Courier New&quot;&gt;train_test_split&lt;/font&gt;&lt;/li&gt;&lt;/ol&gt;&lt;/div&gt;&lt;/td&gt;&lt;/tr&gt;&lt;tr&gt;&lt;td&gt;pipeline&lt;/td&gt;&lt;td&gt;&lt;h3&gt;&lt;font face=&quot;Courier New&quot;&gt;from sklearn.pipeline import make_pipeline&lt;/font&gt;&lt;/h3&gt;&lt;div&gt;&lt;ol&gt;&lt;li&gt;&lt;font face=&quot;Courier New&quot;&gt;make_pipeline&lt;/font&gt;&lt;/li&gt;&lt;/ol&gt;&lt;/div&gt;&lt;/td&gt;&lt;/tr&gt;&lt;tr&gt;&lt;td&gt;linear model&lt;/td&gt;&lt;td&gt;&lt;br&gt;&lt;h3&gt;&lt;font face=&quot;Courier New&quot;&gt;from sklearn import linear_model&lt;/font&gt;&lt;/h3&gt;&lt;ol style=&quot;font-family: &amp;#34;courier new&amp;#34;&quot;&gt;&lt;li&gt;&lt;font face=&quot;Courier New&quot;&gt;LinearRegression&lt;br&gt;&lt;/font&gt;&lt;/li&gt;&lt;li&gt;&lt;font face=&quot;Courier New&quot;&gt;Ridge&lt;/font&gt;&lt;/li&gt;&lt;li&gt;&lt;font face=&quot;Courier New&quot;&gt;LogisticRegression&lt;/font&gt;&lt;/li&gt;&lt;/ol&gt;&lt;h4&gt;Methods&lt;/h4&gt;&lt;div&gt;&lt;ol style=&quot;font-family: &amp;#34;courier new&amp;#34;&quot;&gt;&lt;li&gt;&lt;font face=&quot;Courier New&quot;&gt;&lt;div&gt;fit()&lt;/div&gt;&lt;/font&gt;&lt;/li&gt;&lt;li&gt;&lt;div&gt;predict()&lt;/div&gt;&lt;/li&gt;&lt;/ol&gt;&lt;h4&gt;Attributes&lt;/h4&gt;&lt;div style=&quot;font-family: &amp;#34;courier new&amp;#34;&quot;&gt;&lt;ol&gt;&lt;li&gt;coef_&lt;/li&gt;&lt;li&gt;intercept_&lt;/li&gt;&lt;/ol&gt;&lt;/div&gt;&lt;/div&gt;&lt;h3&gt;&lt;font face=&quot;Courier New&quot;&gt;Examples&lt;/font&gt;&lt;/h3&gt;&lt;font face=&quot;Courier New&quot;&gt;reg = linear_model.LinearRegression()&lt;br&gt;reg.fit([[0, 0], [1, 1], [2, 2]], [0, 1, 2])&lt;br&gt;reg.coef_&lt;/font&gt;&lt;/td&gt;&lt;/tr&gt;&lt;tr&gt;&lt;td&gt;ensemble&lt;/td&gt;&lt;td&gt;&lt;h3&gt;from sklearn import ensemble&lt;/h3&gt;&lt;ol&gt;&lt;li&gt;RandomForestRegressor&lt;/li&gt;&lt;li&gt;GradientBoostingRegressor&lt;/li&gt;&lt;li&gt;VotingRegressor&lt;/li&gt;&lt;/ol&gt;&lt;/td&gt;&lt;/tr&gt;&lt;/tbody&gt;&lt;/table&gt; " style="verticalAlign=top;align=left;overflow=fill;fontSize=12;fontFamily=Helvetica;html=1" parent="eif3WQCAAp5WqQWgN8v_-1" vertex="1">
                    <mxGeometry x="-820" y="10" width="500" height="950" as="geometry"/>
                </mxCell>
            </root>
        </mxGraphModel>
    </diagram>
    <diagram id="kaMjPIlSAaRLgBD4OhvN" name="Numpy">
        <mxGraphModel dx="822" dy="480" grid="1" gridSize="10" guides="1" tooltips="1" connect="1" arrows="1" fold="1" page="1" pageScale="1" pageWidth="827" pageHeight="1169" math="0" shadow="0">
            <root>
                <mxCell id="p0-8UycZZfRGKuaS_H3K-0"/>
                <mxCell id="p0-8UycZZfRGKuaS_H3K-1" parent="p0-8UycZZfRGKuaS_H3K-0"/>
                <mxCell id="p0-8UycZZfRGKuaS_H3K-2" value="&lt;table cellpadding=&quot;4&quot; cellspacing=&quot;0&quot; border=&quot;1&quot; style=&quot;font-size: 1em ; width: 100% ; height: 100%&quot;&gt;&lt;tbody&gt;&lt;tr&gt;&lt;th&gt;Type&lt;/th&gt;&lt;th&gt;Contents&lt;/th&gt;&lt;/tr&gt;&lt;tr&gt;&lt;td&gt;&lt;span style=&quot;text-align: center&quot;&gt;Constants&lt;/span&gt;&lt;br&gt;&lt;/td&gt;&lt;td&gt;&lt;ol&gt;&lt;li&gt;&lt;font face=&quot;Courier New&quot;&gt;np.pi&lt;/font&gt;&lt;/li&gt;&lt;li&gt;&lt;font face=&quot;Courier New&quot;&gt;np.e&lt;/font&gt;&lt;/li&gt;&lt;li&gt;&lt;font face=&quot;Courier New&quot;&gt;np.newaxis &amp;lt;=&amp;gt; None&lt;/font&gt;&lt;/li&gt;&lt;li&gt;&lt;font face=&quot;Courier New&quot;&gt;np.nan &amp;lt;= log(-10)&lt;/font&gt;&lt;/li&gt;&lt;li&gt;&lt;font face=&quot;Courier New&quot;&gt;np.inf&amp;nbsp;np.PINF&amp;nbsp;&lt;/font&gt;&lt;font face=&quot;Courier New&quot; style=&quot;font-size: 1em&quot;&gt;np.NINF &amp;lt;= log(0)&lt;/font&gt;&lt;/li&gt;&lt;/ol&gt;&lt;/td&gt;&lt;/tr&gt;&lt;tr&gt;&lt;td&gt;&lt;span style=&quot;text-align: center&quot;&gt;Ndarray Types&lt;/span&gt;&lt;/td&gt;&lt;td&gt;&lt;ol&gt;&lt;li&gt;&lt;font face=&quot;Courier New&quot;&gt;np.int16&lt;/font&gt;&lt;/li&gt;&lt;li&gt;&lt;font face=&quot;Courier New&quot;&gt;np.int32&lt;/font&gt;&lt;/li&gt;&lt;li&gt;&lt;font face=&quot;Courier New&quot;&gt;np.int64 -&amp;nbsp;&lt;/font&gt;default&lt;/li&gt;&lt;li&gt;&lt;font face=&quot;Courier New&quot;&gt;np.float32&lt;/font&gt;&lt;/li&gt;&lt;li&gt;&lt;font face=&quot;Courier New&quot;&gt;np.float64 -&amp;nbsp;&lt;/font&gt;default&lt;/li&gt;&lt;li&gt;&lt;font face=&quot;Courier New&quot;&gt;np.coomplex&lt;/font&gt;&lt;/li&gt;&lt;li&gt;&lt;font face=&quot;Courier New&quot;&gt;np.bool&lt;/font&gt;&lt;/li&gt;&lt;/ol&gt;&lt;/td&gt;&lt;/tr&gt;&lt;tr&gt;&lt;td&gt;&lt;span style=&quot;text-align: center&quot;&gt;Initialization&lt;/span&gt;&lt;/td&gt;&lt;td&gt;&lt;ol&gt;&lt;li&gt;&lt;font face=&quot;Courier New&quot;&gt;np.array([3, 4, 5], dtype=np.int64)&lt;/font&gt;&lt;/li&gt;&lt;li&gt;&lt;font face=&quot;Courier New&quot;&gt;np.arange(15).reshape(3, 5)&lt;/font&gt;&lt;/li&gt;&lt;li&gt;&lt;font face=&quot;Courier New&quot;&gt;np.zeros((3, 4), dtype=np.int16); np.zeros_like(a)&lt;/font&gt;&lt;/li&gt;&lt;li&gt;&lt;font face=&quot;Courier New&quot;&gt;np.ones((3, 4)); np.ones_like(a)&lt;/font&gt;&lt;/li&gt;&lt;li&gt;&lt;font face=&quot;Courier New&quot;&gt;np.empty((2, 3)); np.empty_like(a)&amp;nbsp;-&amp;nbsp;&lt;/font&gt;uninitialized&lt;/li&gt;&lt;li&gt;&lt;font face=&quot;Courier New&quot;&gt;np.linspace(0, 2, 9) =&amp;gt; [0, .25, .5, ..., 2]&lt;/font&gt;&lt;/li&gt;&lt;li&gt;&lt;font face=&quot;Courier New&quot;&gt;np.fromfunction(f, shape, dtype)&lt;/font&gt;&lt;/li&gt;&lt;/ol&gt;&lt;/td&gt;&lt;/tr&gt;&lt;tr&gt;&lt;td&gt;&lt;span style=&quot;text-align: center&quot;&gt;Attributes&lt;/span&gt;&lt;br&gt;&lt;/td&gt;&lt;td&gt;&lt;ol&gt;&lt;li&gt;&lt;font face=&quot;Courier New&quot;&gt;.ndim = 2&amp;nbsp;-&amp;nbsp;&lt;/font&gt;axes (dimensions) number&lt;/li&gt;&lt;li&gt;&lt;font face=&quot;Courier New&quot;&gt;.shape = (m, n)&amp;nbsp;-&amp;nbsp;&lt;/font&gt;dimensions&lt;/li&gt;&lt;li&gt;&lt;font face=&quot;Courier New&quot;&gt;.size = 20&amp;nbsp;-&amp;nbsp;&lt;/font&gt;elements number&lt;/li&gt;&lt;li&gt;&lt;font face=&quot;Courier New&quot;&gt;.dtype = dtype(&quot;int64&quot;); .dtype.name = &quot;int64&quot;&amp;nbsp;-&amp;nbsp;&lt;/font&gt;element type&lt;/li&gt;&lt;li&gt;&lt;font face=&quot;Courier New&quot;&gt;.itemsize = 8&amp;nbsp;-&amp;nbsp;&lt;/font&gt;element memory size of bytes&lt;/li&gt;&lt;/ol&gt;&lt;/td&gt;&lt;/tr&gt;&lt;tr&gt;&lt;td&gt;&lt;span style=&quot;text-align: center&quot;&gt;Methods&lt;/span&gt;&lt;br&gt;&lt;/td&gt;&lt;td&gt;&lt;ol&gt;&lt;li&gt;&lt;font face=&quot;Courier New&quot;&gt;.sum(),&amp;nbsp;.cumsum(axis=1)&lt;/font&gt;&lt;/li&gt;&lt;li&gt;&lt;font face=&quot;Courier New&quot;&gt;.min()&lt;/font&gt;&lt;/li&gt;&lt;li&gt;&lt;font face=&quot;Courier New&quot;&gt;.max()&lt;/font&gt;&lt;/li&gt;&lt;li&gt;&lt;font face=&quot;Courier New&quot;&gt;.reshape()&lt;/font&gt;&lt;/li&gt;&lt;/ol&gt;&lt;/td&gt;&lt;/tr&gt;&lt;tr&gt;&lt;td&gt;&lt;span style=&quot;text-align: center&quot;&gt;Slicing&lt;/span&gt;&lt;br&gt;&lt;/td&gt;&lt;td&gt;&lt;ol&gt;&lt;li&gt;&lt;font face=&quot;Courier New&quot;&gt;x[1:10] = x[1:10, :] - &lt;/font&gt;the first axis array&lt;/li&gt;&lt;/ol&gt;&lt;/td&gt;&lt;/tr&gt;&lt;tr&gt;&lt;td&gt;&lt;span style=&quot;text-align: center&quot;&gt;Operators&lt;/span&gt;&lt;br&gt;&lt;/td&gt;&lt;td&gt;&lt;ol&gt;&lt;li&gt;&lt;font face=&quot;Courier New&quot;&gt;+ - * /&lt;/font&gt;&lt;/li&gt;&lt;li&gt;&lt;font face=&quot;Courier New&quot; style=&quot;font-size: 1em&quot;&gt;+= *=&lt;font style=&quot;font-size: 1em&quot;&gt;&amp;nbsp;- &lt;/font&gt;&lt;/font&gt;&lt;font face=&quot;Helvetica&quot; style=&quot;font-size: 1em&quot;&gt;modify an existing array rather than create a new one&lt;/font&gt;&lt;br&gt;&lt;/li&gt;&lt;/ol&gt;&lt;/td&gt;&lt;/tr&gt;&lt;tr&gt;&lt;td&gt;&lt;span style=&quot;text-align: center&quot;&gt;Functions&lt;/span&gt;&lt;br&gt;&lt;/td&gt;&lt;td&gt;&lt;h3&gt;&lt;span style=&quot;font-size: 1em&quot;&gt;Transform&lt;/span&gt;&lt;br&gt;&lt;/h3&gt;&lt;ol&gt;&lt;li&gt;&lt;span style=&quot;font-family: &amp;#34;courier new&amp;#34; ; font-size: 1em&quot;&gt;np.concatenate()&lt;/span&gt;&lt;/li&gt;&lt;/ol&gt;&lt;div&gt;&lt;h3&gt;&lt;span style=&quot;font-size: 1em&quot;&gt;Basic&lt;/span&gt;&lt;/h3&gt;&lt;ol&gt;&lt;li&gt;&lt;font face=&quot;Courier New&quot;&gt;np.sum()&lt;/font&gt;&lt;/li&gt;&lt;li&gt;&lt;font face=&quot;Courier New&quot;&gt;np.sin(), np.cos()&lt;/font&gt;&lt;/li&gt;&lt;li&gt;&lt;font face=&quot;Courier New&quot;&gt;np.exp(), np.log()&lt;/font&gt;&lt;/li&gt;&lt;/ol&gt;&lt;/div&gt;&lt;h3&gt;Matrix&lt;/h3&gt;&lt;div&gt;&lt;ol&gt;&lt;li&gt;&lt;font face=&quot;Courier New&quot;&gt;np.dot(); @&lt;/font&gt;&lt;/li&gt;&lt;li&gt;&lt;font face=&quot;Courier New&quot;&gt;np.linalg.inv()&lt;/font&gt;&lt;/li&gt;&lt;/ol&gt;&lt;/div&gt;&lt;/td&gt;&lt;/tr&gt;&lt;/tbody&gt;&lt;/table&gt; " style="verticalAlign=top;align=left;overflow=fill;fontSize=12;fontFamily=Helvetica;html=1" parent="p0-8UycZZfRGKuaS_H3K-1" vertex="1">
                    <mxGeometry x="10" y="10" width="710" height="990" as="geometry"/>
                </mxCell>
            </root>
        </mxGraphModel>
    </diagram>
    <diagram id="jcW2NYbBDsF0aey7d0wT" name="Matplotlib">
        <mxGraphModel dx="822" dy="480" grid="1" gridSize="10" guides="1" tooltips="1" connect="1" arrows="1" fold="1" page="1" pageScale="1" pageWidth="827" pageHeight="1169" math="1" shadow="0">
            <root>
                <mxCell id="W2FdHxPLdwoByWJM8e6f-0"/>
                <mxCell id="W2FdHxPLdwoByWJM8e6f-1" parent="W2FdHxPLdwoByWJM8e6f-0"/>
                <mxCell id="7SJZB__TwsgWhMnuFC2J-0" value="&lt;table cellpadding=&quot;4&quot; cellspacing=&quot;0&quot; border=&quot;1&quot; style=&quot;font-size: 12px ; width: 100% ; height: 100%&quot;&gt;&lt;tbody style=&quot;font-size: 12px&quot;&gt;&lt;tr style=&quot;font-size: 12px&quot;&gt;&lt;th style=&quot;font-size: 12px&quot;&gt;Type&lt;/th&gt;&lt;th style=&quot;font-size: 12px&quot;&gt;Contents&lt;/th&gt;&lt;/tr&gt;&lt;tr style=&quot;font-size: 12px&quot;&gt;&lt;td style=&quot;font-size: 12px&quot;&gt;matplotlib.pyplot&lt;/td&gt;&lt;td style=&quot;font-size: 12px&quot;&gt;&lt;h3 style=&quot;font-size: 12px&quot;&gt;Geoms&lt;/h3&gt;&lt;ol style=&quot;font-size: 12px&quot;&gt;&lt;li style=&quot;font-size: 12px&quot;&gt;&lt;font face=&quot;Courier New&quot;&gt;plot&lt;/font&gt;&lt;/li&gt;&lt;li style=&quot;font-size: 12px&quot;&gt;&lt;font face=&quot;Courier New&quot;&gt;scatter&lt;/font&gt;&lt;/li&gt;&lt;/ol&gt;&lt;div style=&quot;font-size: 12px&quot;&gt;&lt;h3 style=&quot;font-size: 12px&quot;&gt;Parameters&lt;/h3&gt;&lt;div style=&quot;font-size: 12px&quot;&gt;&lt;ol style=&quot;font-size: 12px&quot;&gt;&lt;li style=&quot;font-size: 12px&quot;&gt;&lt;font face=&quot;Courier New&quot;&gt;&lt;span style=&quot;font-size: 12px&quot;&gt;color&lt;/span&gt;&lt;br style=&quot;font-size: 12px&quot;&gt;&lt;/font&gt;&lt;/li&gt;&lt;li style=&quot;font-size: 12px&quot;&gt;&lt;font face=&quot;Courier New&quot;&gt;linewidth&lt;/font&gt;&lt;/li&gt;&lt;/ol&gt;&lt;/div&gt;&lt;/div&gt;&lt;h3 style=&quot;font-size: 12px&quot;&gt;Theme&lt;/h3&gt;&lt;ol style=&quot;font-size: 12px&quot;&gt;&lt;li style=&quot;font-size: 12px&quot;&gt;&lt;font face=&quot;Courier New&quot;&gt;title&lt;/font&gt;&lt;/li&gt;&lt;li style=&quot;font-size: 12px&quot;&gt;&lt;font face=&quot;Courier New&quot;&gt;xlabel&lt;/font&gt;&lt;/li&gt;&lt;li style=&quot;font-size: 12px&quot;&gt;&lt;font face=&quot;Courier New&quot;&gt;ylabel&lt;/font&gt;&lt;/li&gt;&lt;li style=&quot;font-size: 12px&quot;&gt;&lt;font face=&quot;Courier New&quot;&gt;legend&lt;/font&gt;&lt;/li&gt;&lt;li style=&quot;font-size: 12px&quot;&gt;&lt;font face=&quot;Courier New&quot;&gt;xticks&lt;/font&gt;&lt;/li&gt;&lt;li style=&quot;font-size: 12px&quot;&gt;&lt;font face=&quot;Courier New&quot;&gt;yticks&lt;/font&gt;&lt;/li&gt;&lt;/ol&gt;&lt;/td&gt;&lt;/tr&gt;&lt;tr&gt;&lt;td&gt;Seaborn&lt;/td&gt;&lt;td&gt;&lt;h3&gt;Font&lt;/h3&gt;&lt;div&gt;&lt;span style=&quot;font-family: &amp;#34;courier new&amp;#34;&quot;&gt;import seaborn as sns&lt;/span&gt;&lt;/div&gt;&lt;div&gt;&lt;span style=&quot;font-family: &amp;#34;courier new&amp;#34;&quot;&gt;sns.set_style(None, {&quot;font.sans-serif&quot;:[&quot;SimHei&quot;, &quot;Arial&quot;]})&lt;/span&gt;&lt;/div&gt;&lt;div&gt;&lt;span style=&quot;font-family: &amp;#34;courier new&amp;#34;&quot;&gt;&lt;br&gt;&lt;/span&gt;&lt;/div&gt;&lt;h3&gt;Geoms&lt;/h3&gt;&lt;div&gt;&lt;ol&gt;&lt;li&gt;&lt;span style=&quot;font-family: &amp;#34;courier new&amp;#34;&quot;&gt;sns.barplot()&lt;/span&gt;&lt;br&gt;&lt;/li&gt;&lt;li&gt;&lt;span style=&quot;font-family: &amp;#34;courier new&amp;#34;&quot;&gt;sns.lineplot()&lt;/span&gt;&lt;br&gt;&lt;/li&gt;&lt;li&gt;&lt;font face=&quot;Courier New&quot;&gt;sns.scatterplot()&lt;/font&gt;&lt;/li&gt;&lt;li&gt;&lt;font face=&quot;Courier New&quot;&gt;sns.histplot()&lt;/font&gt;&lt;/li&gt;&lt;li&gt;&lt;font face=&quot;Courier New&quot;&gt;sns.displot()&lt;/font&gt;&lt;/li&gt;&lt;li&gt;&lt;font face=&quot;Courier New&quot;&gt;sns.lmplot() - scatter plot with linear model&lt;/font&gt;&lt;/li&gt;&lt;li&gt;&lt;font face=&quot;Courier New&quot;&gt;sns.relplot() - relationships visualization&lt;/font&gt;&lt;/li&gt;&lt;/ol&gt;&lt;h3&gt;Style&lt;/h3&gt;&lt;/div&gt;&lt;div&gt;&lt;ol&gt;&lt;li&gt;hue&lt;/li&gt;&lt;li&gt;style&lt;/li&gt;&lt;li&gt;size&lt;/li&gt;&lt;/ol&gt;&lt;/div&gt;&lt;h3&gt;Theme&lt;/h3&gt;&lt;div&gt;&lt;div&gt;&lt;ol&gt;&lt;li&gt;&lt;font face=&quot;Courier New&quot;&gt;ax.set_xlabel(r&quot;$y$&quot;, size = 16)&amp;nbsp;&lt;/font&gt;&lt;/li&gt;&lt;li&gt;&lt;font face=&quot;Courier New&quot;&gt;ax.set_ylabel(r&quot;$\hat{y}$&quot;, size = 16, rotation = 0, labelpad = 15)&amp;nbsp;&lt;/font&gt;&lt;/li&gt;&lt;li&gt;&lt;font face=&quot;Courier New&quot;&gt;ax.set_title(r&quot;$y$ vs. $\hat{y}$&quot;, size = 16, pad = 10)&lt;/font&gt;&lt;/li&gt;&lt;/ol&gt;&lt;/div&gt;&lt;/div&gt;&lt;h3&gt;Example&lt;/h3&gt;&lt;div&gt;&lt;span style=&quot;font-family: &amp;#34;courier new&amp;#34;&quot;&gt;import seaborn as sns&lt;/span&gt;&lt;font face=&quot;Courier New&quot;&gt;&lt;br&gt;&lt;/font&gt;&lt;/div&gt;&lt;div&gt;&lt;font face=&quot;courier new&quot;&gt;import matplotlib.pyplot as plt&lt;/font&gt;&lt;br&gt;&lt;/div&gt;&lt;div&gt;&lt;font face=&quot;courier new&quot;&gt;&lt;br&gt;&lt;/font&gt;&lt;/div&gt;&lt;div&gt;&lt;font face=&quot;Courier New&quot;&gt;fig, ax = plt.subplots()&amp;nbsp;&lt;/font&gt;&lt;/div&gt;&lt;div&gt;&lt;font face=&quot;Courier New&quot;&gt;sns.scatterplot(model.y, model.y_hat)&amp;nbsp;&lt;/font&gt;&lt;/div&gt;&lt;div&gt;&lt;font face=&quot;Courier New&quot;&gt;ax.set_xlabel(r&quot;$y$&quot;, size = 16)&amp;nbsp;&lt;/font&gt;&lt;/div&gt;&lt;div&gt;&lt;font face=&quot;Courier New&quot;&gt;ax.set_ylabel(r&quot;$\hat{y}$&quot;, size = 16, rotation = 0, labelpad = 15)&amp;nbsp;&lt;/font&gt;&lt;/div&gt;&lt;div&gt;&lt;font face=&quot;Courier New&quot;&gt;ax.set_title(r&quot;$y$ vs. $\hat{y}$&quot;, size = 16, pad = 10)&lt;/font&gt;&lt;br&gt;&lt;/div&gt;&lt;/td&gt;&lt;/tr&gt;&lt;/tbody&gt;&lt;/table&gt; " style="verticalAlign=top;align=left;overflow=fill;fontSize=12;fontFamily=Helvetica;html=1" parent="W2FdHxPLdwoByWJM8e6f-1" vertex="1">
                    <mxGeometry x="10" y="20" width="640" height="850" as="geometry"/>
                </mxCell>
            </root>
        </mxGraphModel>
    </diagram>
    <diagram id="N0p5XVCVV5kxnmp78cwJ" name="References">
        <mxGraphModel dx="822" dy="480" grid="1" gridSize="10" guides="1" tooltips="1" connect="1" arrows="1" fold="1" page="1" pageScale="1" pageWidth="827" pageHeight="1169" math="0" shadow="0">
            <root>
                <mxCell id="qDHk-inmARLvYVeP084I-0"/>
                <mxCell id="qDHk-inmARLvYVeP084I-1" parent="qDHk-inmARLvYVeP084I-0"/>
                <mxCell id="qDHk-inmARLvYVeP084I-2" value="&lt;table cellpadding=&quot;4&quot; cellspacing=&quot;0&quot; border=&quot;1&quot; style=&quot;font-size: 1em ; width: 100% ; height: 100%&quot;&gt;&lt;tbody&gt;&lt;tr&gt;&lt;th&gt;Type&lt;/th&gt;&lt;th&gt;Content&lt;/th&gt;&lt;/tr&gt;&lt;tr&gt;&lt;td&gt;ML&lt;/td&gt;&lt;td&gt;&lt;ol&gt;&lt;li&gt;&lt;a href=&quot;https://dafriedman97.github.io/mlbook/content/introduction.html&quot;&gt;Machine Learning from Scratch&lt;br&gt;&lt;/a&gt;&lt;/li&gt;&lt;li&gt;&lt;a href=&quot;https://www.cnblogs.com/pinard&quot;&gt;ljpzzz/machinelearning&amp;nbsp;blog&lt;/a&gt;&amp;nbsp;&lt;a href=&quot;https://github.com/ljpzzz/machinelearning&quot;&gt;github&lt;/a&gt;&lt;/li&gt;&lt;li&gt;&lt;a href=&quot;https://www.math.uwaterloo.ca/~hwolkowi/matrixcookbook.pdf&quot;&gt;The Matrix Cookbook&lt;/a&gt;&lt;br&gt;&lt;/li&gt;&lt;li&gt;&lt;a href=&quot;https://www.analyticsvidhya.com/blog/2015/12/complete-tutorial-time-series-modeling/&quot;&gt;A Complete Tutorial on Time Series Modeling in R&lt;/a&gt;&lt;br&gt;&lt;/li&gt;&lt;li&gt;&lt;a href=&quot;https://en.wikipedia.org/wiki/Kernel_(statistics)#Kernel_functions_in_common_use&quot;&gt;Kernel functions in common use&lt;/a&gt;&lt;br&gt;&lt;/li&gt;&lt;li&gt;&lt;a href=&quot;http://faculty.washington.edu/yenchic/18W_425/Lec6_hist_KDE.pdf&quot;&gt;Density Estimation: Histogram and Kernel Density Estimator&lt;/a&gt;&lt;br&gt;&lt;/li&gt;&lt;li&gt;&lt;a href=&quot;http://yahwes.github.io/ISLR/&quot;&gt;ISLR EXERCISES&lt;/a&gt;&amp;nbsp;&lt;a href=&quot;https://blog.princehonest.com/stat-learning/&quot;&gt;SOLUTIONS&lt;/a&gt;&lt;br&gt;&lt;/li&gt;&lt;li&gt;&lt;br&gt;&lt;/li&gt;&lt;/ol&gt;&lt;/td&gt;&lt;/tr&gt;&lt;tr&gt;&lt;td&gt;MathJax&lt;/td&gt;&lt;td&gt;&lt;ol&gt;&lt;li&gt;&lt;a href=&quot;https://math.meta.stackexchange.com/questions/5020/mathjax-basic-tutorial-and-quick-reference&quot;&gt;mathjax-basic-tutorial-and-quick-reference&lt;/a&gt;&lt;/li&gt;&lt;li&gt;&lt;a href=&quot;https://www.overleaf.com/learn/latex/Mathematical_expressions&quot;&gt;overleaf&lt;/a&gt;&lt;/li&gt;&lt;li&gt;&lt;a href=&quot;http://milde.users.sourceforge.net/LUCR/Math/math-font-selection.xhtml&quot;&gt;Math Font Selection in LaTeX and Unicode&lt;br&gt;&lt;/a&gt;&lt;/li&gt;&lt;/ol&gt;&lt;/td&gt;&lt;/tr&gt;&lt;tr&gt;&lt;td&gt;Numpy&lt;/td&gt;&lt;td&gt;&lt;ol&gt;&lt;li&gt;&lt;a href=&quot;https://numpy.org/devdocs/reference/index.html#reference&quot;&gt;numpy&lt;/a&gt;&lt;/li&gt;&lt;/ol&gt;&lt;/td&gt;&lt;/tr&gt;&lt;/tbody&gt;&lt;/table&gt; " style="verticalAlign=top;align=left;overflow=fill;fontSize=12;fontFamily=Helvetica;html=1" parent="qDHk-inmARLvYVeP084I-1" vertex="1">
                    <mxGeometry x="10" y="10" width="460" height="300" as="geometry"/>
                </mxCell>
            </root>
        </mxGraphModel>
    </diagram>
</mxfile>
